<?xml version="1.0" standalone="no"?>
<!DOCTYPE svg PUBLIC "-//W3C//DTD SVG 20010904//EN"
 "http://www.w3.org/TR/2001/REC-SVG-20010904/DTD/svg10.dtd">
<svg version="1.0" xmlns="http://www.w3.org/2000/svg"
 width="2268.000000pt" height="2268.000000pt" viewBox="0 0 2268.000000 2268.000000"
 preserveAspectRatio="xMidYMid meet">

<g transform="translate(0.000000,2268.000000) scale(0.100000,-0.100000)"
fill="#000000" stroke="none">
<path d="M13770 22554 c-19 -3 -98 -11 -175 -19 -644 -70 -1438 -214 -2080
-380 -1454 -374 -2582 -896 -3390 -1570 -143 -118 -411 -384 -517 -510 -102
-122 -248 -323 -248 -342 0 -51 88 -328 163 -509 194 -472 457 -855 822 -1196
46 -43 88 -102 183 -257 482 -791 809 -1478 921 -1932 35 -144 53 -292 44
-367 -5 -46 -9 -53 -32 -58 -88 -21 -431 -124 -565 -169 -192 -66 -283 -114
-430 -224 -162 -121 -261 -207 -433 -375 l-153 -148 -133 12 c-167 16 -394 9
-457 -14 -78 -28 -90 -38 -144 -121 -96 -148 -174 -215 -247 -215 -42 0 -728
137 -869 174 l-92 24 -388 -387 c-213 -212 -440 -447 -505 -521 -415 -477
-642 -829 -703 -1093 -21 -92 -24 -575 -4 -737 78 -638 222 -1203 501 -1960
117 -316 200 -465 299 -534 55 -38 132 -121 132 -142 0 -9 -36 -149 -81 -311
-44 -162 -78 -297 -74 -301 24 -24 580 -40 798 -23 578 47 1033 195 1367 445
141 106 370 355 370 403 0 24 -59 192 -88 248 -40 80 -97 159 -146 202 -26 22
-46 47 -46 54 0 22 104 361 153 499 96 268 169 433 242 540 58 86 104 184 146
311 58 176 79 293 86 465 8 215 -19 370 -97 541 l-28 61 40 39 c74 70 228 267
238 303 5 19 10 103 10 186 0 150 0 151 28 190 41 56 182 212 367 407 132 139
162 177 174 215 9 31 15 105 16 216 l2 169 79 79 c196 197 324 268 482 270 80
0 124 -18 147 -62 21 -41 19 -65 -13 -145 -55 -135 -66 -192 -67 -320 0 -161
19 -211 120 -312 123 -123 200 -299 193 -437 l-3 -72 -126 -209 c-287 -475
-447 -816 -479 -1017 -16 -104 6 -164 93 -250 108 -108 240 -142 377 -99 35
11 65 19 66 18 10 -11 123 -248 159 -333 l47 -109 -1 -185 c-3 -252 20 -362
97 -466 57 -78 180 -109 286 -74 51 17 95 6 143 -35 l41 -34 -6 -483 -5 -483
58 -80 c139 -195 308 -326 478 -371 113 -30 281 -7 366 49 52 34 193 153 311
261 83 75 96 84 107 70 16 -23 87 -224 118 -337 75 -278 74 -531 -4 -602 -14
-13 -159 -125 -321 -249 l-295 -226 -285 -94 c-157 -52 -334 -109 -394 -126
-83 -24 -126 -43 -181 -80 -72 -49 -73 -50 -103 -132 -16 -46 -55 -162 -86
-258 -148 -465 -221 -804 -233 -1071 -10 -221 22 -317 142 -435 65 -63 128
-89 239 -98 131 -10 151 -36 143 -186 -9 -159 -59 -255 -160 -307 -49 -25 -55
-25 -113 -14 -86 17 -133 3 -194 -58 -108 -108 -182 -331 -225 -681 -32 -257
-30 -357 49 -2218 42 -981 76 -1797 76 -1813 l0 -29 1643 0 c904 0 1712 3
1795 7 l152 6 1978 2218 c1087 1221 1978 2228 1980 2239 10 62 -85 221 -180
300 -190 159 -387 225 -828 277 l-65 8 -27 54 c-32 63 -35 100 -10 131 15 18
36 24 127 36 363 45 671 -9 898 -159 108 -72 167 -90 238 -77 54 10 90 27 132
62 21 17 186 367 677 1437 358 777 650 1417 650 1421 0 5 -57 39 -127 76
-1003 528 -1858 1059 -2059 1277 -118 128 -313 405 -384 547 -43 85 -70 169
-70 216 0 17 -21 107 -46 199 -58 212 -126 516 -161 715 -21 122 -27 189 -27
311 l-1 156 100 109 c55 59 221 231 368 381 l269 272 -1 303 c-1 323 -12 617
-36 948 -91 1235 -299 2134 -610 2625 l-57 90 44 38 c137 120 475 309 702 392
236 87 495 141 741 154 212 12 483 -7 667 -45 l27 -5 -4 57 c-6 116 -135 320
-330 523 -303 315 -700 555 -1133 687 -130 39 -370 89 -477 99 -38 4 -92 13
-120 21 -67 20 -243 19 -380 -1 -602 -89 -1567 -443 -2885 -1060 -354 -166
-1421 -701 -1825 -915 l-290 -154 -160 -4 c-175 -4 -237 7 -262 45 -14 20 -10
25 59 90 40 37 131 124 203 193 1043 1002 2390 1695 3960 2040 100 22 132 36
256 116 l67 42 -24 124 c-101 518 -268 1484 -348 2003 -154 999 -207 1631
-146 1745 10 19 8 27 -21 56 -42 44 -112 78 -214 105 -67 18 -112 22 -285 24
-113 2 -221 1 -240 -1z m-6391 -9191 c68 -61 73 -122 21 -239 -32 -70 -88
-130 -165 -174 -32 -18 -69 -52 -93 -84 -46 -60 -114 -120 -155 -135 -102 -39
-245 35 -306 156 -36 73 -66 213 -42 199 34 -21 241 70 516 227 83 48 157 86
166 87 9 0 35 -17 58 -37z m8951 -3696 l0 -104 -587 -324 c-600 -331 -739
-404 -828 -434 l-51 -18 -54 53 c-63 62 -138 112 -195 130 -59 19 -144 16
-199 -8 -64 -29 -148 -111 -203 -200 l-46 -74 -51 6 c-61 8 -152 -14 -214 -50
-24 -14 -72 -52 -107 -83 -144 -130 -443 -241 -651 -241 -137 0 -233 49 -278
142 -14 29 -27 69 -28 88 -3 32 -1 35 27 37 188 16 444 86 689 189 102 43 417
199 611 303 117 63 164 80 473 176 443 138 1675 514 1685 514 4 1 7 -46 7
-102z m276 -772 c65 -48 120 -88 122 -90 1 -1 -48 -42 -110 -91 -62 -49 -162
-131 -223 -183 -139 -119 -635 -614 -787 -786 -1394 -1573 -2567 -3705 -3454
-6282 -76 -221 -119 -322 -202 -472 l-30 -54 -17 39 c-39 90 -95 279 -116 385
-16 88 -20 138 -17 217 4 95 8 108 44 180 21 42 45 77 52 77 15 0 32 24 32 45
-1 9 -8 5 -21 -12 l-20 -27 -260 129 c-223 112 -259 133 -259 153 0 12 7 191
15 397 85 2131 201 3644 336 4385 51 279 134 504 201 545 70 43 156 23 264
-61 313 -242 573 -189 744 152 l39 76 76 22 c106 32 197 27 249 -13 21 -15 45
-43 53 -62 11 -22 24 -34 37 -35 174 -9 509 97 581 182 l23 28 66 -44 c151
-101 306 -173 441 -206 136 -32 211 -21 313 48 202 137 247 251 158 401 -21
34 -36 67 -34 72 2 5 197 126 433 268 237 142 587 360 780 485 192 125 355
225 361 223 6 -2 65 -43 130 -91z"/>
</g>
</svg>
